<?xml version="1.0" encoding="UTF-8"?>
<svg width="23px" height="24px" viewBox="0 0 23 24" version="1.1" xmlns="http://www.w3.org/2000/svg" xmlns:xlink="http://www.w3.org/1999/xlink">
    <!-- Generator: Sketch 49 (51002) - http://www.bohemiancoding.com/sketch -->
    <title>business</title>
    <desc>Created with Sketch.</desc>
    <defs></defs>
    <g id="Welcome" stroke="none" stroke-width="1" fill="none" fill-rule="evenodd">
        <g id="Main-Page" transform="translate(-528.000000, -689.000000)" fill="#FFFFFF" fill-rule="nonzero" stroke="#FFFFFF" stroke-width="0.2">
            <g id="business" transform="translate(529.000000, 690.000000)">
                <path d="M10.8673664,9.96014987 L10.8673664,0.910665335 C10.8673664,0.661180799 10.7539643,0.411696263 10.572521,0.230252964 C10.3910777,0.0714900777 10.1415932,-0.0192315718 9.91478905,0.00344884062 C4.5168509,0.275613789 0.252933377,4.53953131 0.00344884062,9.89210863 C-0.0192315718,10.1415932 0.0714900777,10.3910777 0.230252964,10.572521 C0.411696263,10.7539643 0.638500387,10.8673664 0.910665335,10.8673664 L9.96014987,10.8673664 C10.4591189,10.8673664 10.8673664,10.4591189 10.8673664,9.96014987 Z M9.96014987,0.910665335 L9.96014987,9.96014987 L0.910665335,9.96014987 C1.13746946,5.03850039 5.01581997,1.16014987 9.96014987,0.910665335 Z" id="Shape"></path>
                <path d="M13.1211275,2.03103208 C12.7355605,1.94031043 12.3273131,2.05371249 12.0324677,2.30319703 C11.714942,2.55268156 11.5334987,2.93824857 11.5334987,3.346496 L11.5334987,12.0557743 C11.5334987,12.3052589 11.329375,12.5093826 11.0798904,12.5093826 L2.37061208,12.5093826 C1.96236465,12.5093826 1.57679764,12.6908259 1.32731311,12.9856713 C1.07782857,13.2805166 0.964426509,13.688764 1.00978733,14.0970115 C1.89432342,19.0867022 6.29432342,22.7155682 11.329375,22.7155682 C11.4881378,22.7155682 11.6469007,22.7155682 11.8056636,22.7155682 C17.1355605,22.4660836 21.4901997,18.1114444 21.7170038,12.804228 C21.9664884,7.5650527 18.2695811,2.93824857 13.1211275,2.03103208 Z M20.8097873,12.7588671 C20.6056636,17.589795 16.613911,21.5815475 11.7603028,21.8083517 C6.9974162,22.0124754 2.73349867,18.6330939 1.91700383,13.960929 C1.89432342,13.8248465 1.93968424,13.688764 2.03040589,13.575362 C2.12112754,13.4619599 2.2345296,13.4165991 2.39329249,13.4165991 L11.0798904,13.4165991 C11.828344,13.4165991 12.4407152,12.804228 12.4407152,12.0557743 L12.4407152,3.346496 C12.4407152,3.21041352 12.5087564,3.09701146 12.5994781,3.00628981 C12.6448389,2.96092899 12.7809214,2.89288775 12.9396842,2.91556816 C17.65721,3.75474342 21.0365915,7.97330012 20.8097873,12.7588671 Z" id="Shape"></path>
            </g>
        </g>
    </g>
</svg>