<?xml version="1.0" encoding="UTF-8"?>
<svg width="22px" height="21px" viewBox="0 0 22 21" version="1.1" xmlns="http://www.w3.org/2000/svg" xmlns:xlink="http://www.w3.org/1999/xlink">
    <!-- Generator: Sketch 49 (51002) - http://www.bohemiancoding.com/sketch -->
    <title>cloud-computing</title>
    <desc>Created with Sketch.</desc>
    <defs>
        <path d="M10.8354459,11.7994142 L9.04235643,10.2061121 C8.7332451,9.93128099 8.26689195,9.93132589 7.95764519,10.2060672 L6.16455569,11.7994592 C5.96149117,11.9798508 5.94397471,12.2898441 6.12532424,12.491836 C6.30667377,12.6937381 6.6182681,12.7112968 6.82137776,12.5308603 L8.00707952,11.4772511 L8.00707952,17.5096599 C8.00707952,17.7804943 8.22775079,18 8.50002338,18 C8.77225083,18 8.99296724,17.7804943 8.99296724,17.5096599 L8.99296724,11.4771613 L10.1787141,12.5308154 C10.2727071,12.6143874 10.3900403,12.6554773 10.506922,12.6554773 C10.6424489,12.6554773 10.7773437,12.6002866 10.8747677,12.4917911 C11.0560269,12.2897992 11.0384653,11.9798508 10.8354459,11.7994142 Z" id="path-1"></path>
        <path d="M15.8354459,13.7994142 L14.0423564,12.2061121 C13.7332451,11.931281 13.266892,11.9313259 12.9576452,12.2060672 L11.1645557,13.7994592 C10.9614912,13.9798508 10.9439747,14.2898441 11.1253242,14.491836 C11.3066738,14.6937381 11.6182681,14.7112968 11.8213778,14.5308603 L13.0070795,13.4772511 L13.0070795,19.5096599 C13.0070795,19.7804943 13.2277508,20 13.5000234,20 C13.7722508,20 13.9929672,19.7804943 13.9929672,19.5096599 L13.9929672,13.4771613 L15.1787141,14.5308154 C15.2727071,14.6143874 15.3900403,14.6554773 15.506922,14.6554773 C15.6424489,14.6554773 15.7773437,14.6002866 15.8747677,14.4917911 C16.0560269,14.2897992 16.0384653,13.9798508 15.8354459,13.7994142 Z" id="path-2"></path>
    </defs>
    <g id="Welcome" stroke="none" stroke-width="1" fill="none" fill-rule="evenodd">
        <g id="Main-Page" transform="translate(-847.000000, -693.000000)" fill-rule="nonzero">
            <g id="cloud-computing" transform="translate(847.000000, 693.000000)">
                <path d="M17.4098908,6.05703314 C17.3640468,2.70938791 14.6265692,0 11.2682027,0 C9.77430409,0 8.33504094,0.543438596 7.21565692,1.53022222 C6.21660819,2.4108655 5.53319298,3.5877154 5.26254581,4.87979727 C5.24277583,4.87958285 5.22317739,4.87941131 5.20362183,4.87941131 C2.33440156,4.87941131 0,7.21376998 0,10.0830331 C0,12.9522963 2.33440156,15.286655 5.20366472,15.286655 L8.83786745,15.286655 C9.09642105,15.286655 9.30612865,15.0770331 9.30612865,14.8183938 C9.30612865,14.5597544 9.09642105,14.3501326 8.83786745,14.3501326 L5.20366472,14.3501326 C2.85073684,14.3501326 0.936522417,12.4359181 0.936522417,10.0830331 C0.936522417,7.73014815 2.85073684,5.81593372 5.20366472,5.81593372 C5.32901754,5.81593372 5.46153216,5.82266667 5.60884211,5.83651852 C5.85851852,5.85989084 6.08267836,5.68230409 6.11668616,5.43357115 C6.28530994,4.19762573 6.89552047,3.06087329 7.83495906,2.23272125 C8.78318908,1.39680702 10.0024522,0.936479532 11.2681598,0.936479532 C14.1386667,0.936479532 16.4739259,3.27178168 16.4739259,6.14224561 C16.4739259,6.24559844 16.4662495,6.35212476 16.4581442,6.46491228 L16.4546706,6.5128577 C16.4449357,6.65060429 16.4964834,6.78564912 16.5956335,6.88184016 C16.694655,6.97803119 16.8309864,7.02554776 16.9686043,7.01178168 C17.0931423,6.99921637 17.2187953,6.99291228 17.3420468,6.99291228 C19.3703782,6.99291228 21.0206355,8.64312671 21.0206355,10.671501 C21.0206355,12.6998324 19.3704211,14.3500468 17.3420468,14.3500468 L13.5205224,14.3500468 C13.2619688,14.3500468 13.0522612,14.5596686 13.0522612,14.818308 C13.0522612,15.0769474 13.2619688,15.2865692 13.5205224,15.2865692 L17.3420468,15.2865692 C19.8867992,15.2865692 21.9571579,13.2162963 21.9571579,10.671501 C21.957115,8.14956335 19.9235088,6.0934425 17.4098908,6.05703314 Z" id="Shape" fill="#FFFFFF"></path>
                <g id="Shape">
                    <use fill="#FFFFFF" fill-rule="evenodd" xlink:href="#path-1"></use>
                    <path stroke="#2F3564" stroke-width="1" d="M9.49296724,12.5903424 L9.49296724,17.5096599 C9.49296724,18.0572228 9.04781071,18.5 8.50002338,18.5 C7.95219946,18.5 7.50707952,18.0572312 7.50707952,17.5096599 L7.50707952,12.5904288 L7.15345131,12.9046612 C6.74476384,13.2677269 6.11856867,13.2325639 5.75327153,12.8258672 C5.38672034,12.4175927 5.42224559,11.7900903 5.83242797,11.4257063 L7.62556097,9.83227574 C8.12426915,9.38921291 8.87606334,9.38921291 9.3744737,9.83235001 L11.1675632,11.4256521 L11.167602,11.4256866 C11.5776657,11.7901369 11.6132672,12.4174608 11.2467928,12.825853 C11.0560364,13.0382872 10.7868614,13.1554773 10.506922,13.1554773 C10.2653795,13.1554773 10.0305099,13.0681002 9.84659266,12.9045737 L9.49296724,12.5903424 Z"></path>
                </g>
                <g id="Shape-Copy-3" transform="translate(13.500000, 16.000000) rotate(-180.000000) translate(-13.500000, -16.000000) ">
                    <use fill="#FFFFFF" fill-rule="evenodd" xlink:href="#path-2"></use>
                    <path stroke="#2F3564" stroke-width="1" d="M13.5070795,12.3765203 L13.5000758,12.3702968 L13.4929672,12.3766134 L13.4929672,12.5000734 C13.4976708,12.4999691 13.5023761,12.4999691 13.5070795,12.5000733 L13.5070795,12.3765203 Z M14.4929672,14.5903424 L14.4929672,19.5096599 C14.4929672,20.0572228 14.0478107,20.5 13.5000234,20.5 C12.9521995,20.5 12.5070795,20.0572312 12.5070795,19.5096599 L12.5070795,14.5904288 L12.1534513,14.9046612 C11.7447638,15.2677269 11.1185687,15.2325639 10.7532715,14.8258672 C10.3867203,14.4175927 10.4222456,13.7900903 10.832428,13.4257063 L12.625561,11.8322757 C13.1242691,11.3892129 13.8760633,11.3892129 14.3744737,11.83235 L16.1675632,13.4256521 L16.167602,13.4256866 C16.5776657,13.7901369 16.6132672,14.4174608 16.2467928,14.825853 C16.0560364,15.0382872 15.7868614,15.1554773 15.506922,15.1554773 C15.2653795,15.1554773 15.0305099,15.0681002 14.8465927,14.9045737 L14.4929672,14.5903424 Z"></path>
                </g>
            </g>
        </g>
    </g>
</svg>