<?xml version="1.0" encoding="UTF-8"?>
<svg width="24px" height="22px" viewBox="0 0 24 22" version="1.1" xmlns="http://www.w3.org/2000/svg" xmlns:xlink="http://www.w3.org/1999/xlink">
    <!-- Generator: Sketch 49 (51002) - http://www.bohemiancoding.com/sketch -->
    <title>002-coins</title>
    <desc>Created with Sketch.</desc>
    <defs></defs>
    <g id="Welcome" stroke="none" stroke-width="1" fill="none" fill-rule="evenodd">
        <g id="Main-Page" transform="translate(-255.000000, -690.000000)" fill="#FFFFFF" fill-rule="nonzero">
            <g id="002-coins" transform="translate(255.000000, 690.000000)">
                <path d="M18.4237006,5.5983368 C21.5172557,5.5983368 23.8474012,4.395842 23.8474012,2.7991684 C23.8474012,1.2024948 21.5172557,0 18.4237006,0 C15.3301455,0 13,1.2024948 13,2.7991684 C13,4.395842 15.3301455,5.5983368 18.4237006,5.5983368 Z M18.4237006,1.2024948 C21.0033264,1.2024948 22.649896,2.15051975 22.649896,2.804158 C22.649896,3.45779626 21.0033264,4.40582121 18.4237006,4.40582121 C15.8440748,4.40582121 14.1975052,3.45779626 14.1975052,2.804158 C14.1975052,2.15051975 15.8440748,1.2024948 18.4237006,1.2024948 Z" id="Shape"></path>
                <path d="M23.2848993,6.03722346 C22.9755438,5.92246254 22.631261,6.0821299 22.5165001,6.39148541 C22.2620303,7.08504051 20.585523,7.83348125 18.3202423,7.83348125 C16.1148369,7.83348125 14.4632777,7.12495735 14.1439429,6.44138146 C14.004234,6.14200516 13.6449824,6.01227543 13.3456061,6.15198437 C13.0462298,6.29169331 12.9165001,6.65094487 13.0562091,6.95032117 C13.6399928,8.19772242 15.7555854,9.03098645 18.3202423,9.03098645 C19.5426955,9.03098645 20.7302215,8.83140225 21.6732569,8.46217148 C22.7110947,8.05801348 23.3946706,7.48420891 23.6441508,6.80063302 C23.7539222,6.49626712 23.5942548,6.15198437 23.2848993,6.03722346 Z" id="Shape"></path>
                <path d="M23.2848993,9.03722346 C22.9755438,8.92246254 22.631261,9.0821299 22.5165001,9.39148541 C22.2620303,10.0850405 20.585523,10.8334813 18.3202423,10.8334813 C16.1148369,10.8334813 14.4632777,10.1249573 14.1439429,9.44138146 C14.004234,9.14200516 13.6449824,9.01227543 13.3456061,9.15198437 C13.0462298,9.29169331 12.9165001,9.65094487 13.0562091,9.95032117 C13.6399928,11.1977224 15.7555854,12.0309865 18.3202423,12.0309865 C19.5426955,12.0309865 20.7302215,11.8314023 21.6732569,11.4621715 C22.7110947,11.0580135 23.3946706,10.4842089 23.6441508,9.80063302 C23.7539222,9.49626712 23.5942548,9.15198437 23.2848993,9.03722346 Z" id="Shape"></path>
                <path d="M23.2848993,12.0372235 C22.9755438,11.9224625 22.631261,12.0821299 22.5165001,12.3914854 C22.2620303,13.0850405 20.585523,13.8334813 18.3202423,13.8334813 C16.1148369,13.8334813 14.4632777,13.1249573 14.1439429,12.4413815 C14.004234,12.1420052 13.6449824,12.0122754 13.3456061,12.1519844 C13.0462298,12.2916933 12.9165001,12.6509449 13.0562091,12.9503212 C13.6399928,14.1977224 15.7555854,15.0309865 18.3202423,15.0309865 C19.5426955,15.0309865 20.7302215,14.8314023 21.6732569,14.4621715 C22.7110947,14.0580135 23.3946706,13.4842089 23.6441508,12.800633 C23.7539222,12.4962671 23.5942548,12.1519844 23.2848993,12.0372235 Z" id="Shape"></path>
                <path d="M23.2848993,15.0372235 C22.9755438,14.9224625 22.631261,15.0821299 22.5165001,15.3914854 C22.2620303,16.0850405 20.585523,16.8334813 18.3202423,16.8334813 C16.1148369,16.8334813 14.4632777,16.1249573 14.1439429,15.4413815 C14.004234,15.1420052 13.6449824,15.0122754 13.3456061,15.1519844 C13.0462298,15.2916933 12.9165001,15.6509449 13.0562091,15.9503212 C13.6399928,17.1977224 15.7555854,18.0309865 18.3202423,18.0309865 C19.5426955,18.0309865 20.7302215,17.8314023 21.6732569,17.4621715 C22.7110947,17.0580135 23.3946706,16.4842089 23.6441508,15.800633 C23.7539222,15.4912775 23.5942548,15.1469948 23.2848993,15.0372235 Z" id="Shape"></path>
                <path d="M23.2848993,18.0372235 C22.9755438,17.9224625 22.631261,18.0821299 22.5165001,18.3914854 C22.2620303,19.0850405 20.585523,19.8334813 18.3202423,19.8334813 C16.1148369,19.8334813 14.4632777,19.1249573 14.1439429,18.4413815 C14.004234,18.1420052 13.6449824,18.0122754 13.3456061,18.1519844 C13.0462298,18.2916933 12.9165001,18.6509449 13.0562091,18.9503212 C13.6399928,20.1977224 15.7555854,21.0309865 18.3202423,21.0309865 C19.5426955,21.0309865 20.7302215,20.8314023 21.6732569,20.4621715 C22.7110947,20.0580135 23.3946706,19.4842089 23.6441508,18.800633 C23.7539222,18.4962671 23.5942548,18.1519844 23.2848993,18.0372235 Z" id="Shape"></path>
                <path d="M10.2848993,12.0372235 C9.97554377,11.9224625 9.63126103,12.0821299 9.51650011,12.3914854 C9.26203026,13.0850405 7.58552298,13.8334813 5.32024232,13.8334813 C3.11483691,13.8334813 1.46327766,13.1249573 1.14394294,12.4413815 C1.004234,12.1420052 0.644982442,12.0122754 0.345606142,12.1519844 C0.0462298429,12.2916933 -0.0834998869,12.6509449 0.0562090529,12.9503212 C0.639992837,14.1977224 2.75558535,15.0309865 5.32024232,15.0309865 C6.54269554,15.0309865 7.73022153,14.8314023 8.67325687,14.4621715 C9.71109471,14.0580135 10.3946706,13.4842089 10.6441508,12.800633 C10.7539222,12.4962671 10.5942548,12.1519844 10.2848993,12.0372235 Z" id="Shape"></path>
                <path d="M10.2848993,15.0372235 C9.97554377,14.9224625 9.63126103,15.0821299 9.51650011,15.3914854 C9.26203026,16.0850405 7.58552298,16.8334813 5.32024232,16.8334813 C3.11483691,16.8334813 1.46327766,16.1249573 1.14394294,15.4413815 C1.004234,15.1420052 0.644982442,15.0122754 0.345606142,15.1519844 C0.0462298429,15.2916933 -0.0834998869,15.6509449 0.0562090529,15.9503212 C0.639992837,17.1977224 2.75558535,18.0309865 5.32024232,18.0309865 C6.54269554,18.0309865 7.73022153,17.8314023 8.67325687,17.4621715 C9.71109471,17.0580135 10.3946706,16.4842089 10.6441508,15.800633 C10.7539222,15.4912775 10.5942548,15.1469948 10.2848993,15.0372235 Z" id="Shape"></path>
                <path d="M10.2848993,18.0372235 C9.97554377,17.9224625 9.63126103,18.0821299 9.51650011,18.3914854 C9.26203026,19.0850405 7.58552298,19.8334813 5.32024232,19.8334813 C3.11483691,19.8334813 1.46327766,19.1249573 1.14394294,18.4413815 C1.004234,18.1420052 0.644982442,18.0122754 0.345606142,18.1519844 C0.0462298429,18.2916933 -0.0834998869,18.6509449 0.0562090529,18.9503212 C0.639992837,20.1977224 2.75558535,21.0309865 5.32024232,21.0309865 C6.54269554,21.0309865 7.73022153,20.8314023 8.67325687,20.4621715 C9.71109471,20.0580135 10.3946706,19.4842089 10.6441508,18.800633 C10.7539222,18.4962671 10.5942548,18.1519844 10.2848993,18.0372235 Z" id="Shape"></path>
                <path d="M5.42370062,7 C2.33014553,7 0,8.2024948 0,9.7991684 C0,11.395842 2.33014553,12.5983368 5.42370062,12.5983368 C8.51725572,12.5983368 10.8474012,11.395842 10.8474012,9.7991684 C10.8474012,8.2024948 8.51725572,7 5.42370062,7 Z M5.42370062,11.4008316 C2.84407484,11.4008316 1.1975052,10.4528067 1.1975052,9.7991684 C1.1975052,9.14553015 2.84407484,8.1975052 5.42370062,8.1975052 C8.0033264,8.1975052 9.64989605,9.14553015 9.64989605,9.7991684 C9.64989605,10.4528067 8.0033264,11.4008316 5.42370062,11.4008316 Z" id="Shape"></path>
            </g>
        </g>
    </g>
</svg>