<?xml version="1.0" encoding="UTF-8"?>
<svg width="12px" height="14px" viewBox="0 0 12 14" version="1.1" xmlns="http://www.w3.org/2000/svg" xmlns:xlink="http://www.w3.org/1999/xlink">
    <!-- Generator: Sketch 49 (51002) - http://www.bohemiancoding.com/sketch -->
    <title>down-arrow</title>
    <desc>Created with Sketch.</desc>
    <defs></defs>
    <g id="Welcome" stroke="none" stroke-width="1" fill="none" fill-rule="evenodd">
        <g id="Detial-Page" transform="translate(-1204.000000, -187.000000)" fill="#000000" fill-rule="nonzero">
            <g id="down-arrow" transform="translate(1209.687500, 194.000000) scale(1, -1) translate(-1209.687500, -194.000000) translate(1204.000000, 187.000000)">
                <path d="M11.1044351,5.10571429 C11.4651883,5.47142857 11.4651883,6.06 11.1044351,6.42571429 C10.9240585,6.60857143 10.6901326,6.7 10.4533883,6.7 C10.216644,6.7 9.98271804,6.60857143 9.80234143,6.42571429 L6.60911174,3.18571429 L6.60911174,13.0657143 C6.60911174,13.58 6.1976276,14 5.6875,14 C5.1773724,14 4.76588826,13.5828571 4.76588826,13.0657143 L4.76588826,3.18571429 L1.57265857,6.42571429 C1.21190535,6.79142857 0.631318137,6.79142857 0.270564916,6.42571429 C-0.0901883053,6.06 -0.0901883053,5.47142857 0.270564916,5.10571429 L5.03645317,0.274285714 C5.20837463,0.0971428571 5.44230055,0 5.6875,0 C5.93269945,0 6.16662537,0.0971428571 6.33854683,0.274285714 L11.1044351,5.10571429 Z" id="Shape"></path>
            </g>
        </g>
    </g>
</svg>